<svg width="60" height="60" viewBox="0 0 60 60" fill="none" xmlns="http://www.w3.org/2000/svg">
<path d="M22.3252 2.79102H37.6748C41.6277 2.79102 44.4247 2.79306 46.6113 2.97168C48.7655 3.14768 50.0808 3.48126 51.1143 4.00781C53.2146 5.07801 54.922 6.78543 55.9922 8.88574C56.5187 9.91917 56.8523 11.2345 57.0283 13.3887C57.2069 15.5753 57.209 18.3723 57.209 22.3252V37.6748C57.209 41.6277 57.2069 44.4247 57.0283 46.6113C56.8523 48.7655 56.5187 50.0808 55.9922 51.1143C54.922 53.2146 53.2146 54.922 51.1143 55.9922C50.0808 56.5187 48.7655 56.8523 46.6113 57.0283C44.4247 57.2069 41.6277 57.209 37.6748 57.209H22.3252C18.3723 57.209 15.5753 57.2069 13.3887 57.0283C11.2345 56.8523 9.91917 56.5187 8.88574 55.9922C6.78543 54.922 5.07801 53.2146 4.00781 51.1143C3.48126 50.0808 3.14768 48.7655 2.97168 46.6113C2.79306 44.4247 2.79102 41.6277 2.79102 37.6748V22.3252C2.79102 18.3723 2.79306 15.5753 2.97168 13.3887C3.14768 11.2345 3.48126 9.91917 4.00781 8.88574C5.07801 6.78544 6.78544 5.07801 8.88574 4.00781C9.91917 3.48126 11.2345 3.14768 13.3887 2.97168C15.5753 2.79306 18.3723 2.79102 22.3252 2.79102Z" fill="#262626" stroke="black" stroke-width="5.5814"/>
<path d="M22.3252 0.697266H37.6748C41.5935 0.697266 44.4905 0.698503 46.7822 0.885742C49.0658 1.07232 50.6868 1.44063 52.0645 2.14258C54.5587 3.41346 56.5865 5.44131 57.8574 7.93555C58.5594 9.3132 58.9277 10.9342 59.1143 13.2178C59.3015 15.5095 59.3027 18.4065 59.3027 22.3252V37.6748C59.3027 41.5935 59.3015 44.4905 59.1143 46.7822C58.9277 49.0658 58.5594 50.6868 57.8574 52.0645C56.5865 54.5587 54.5587 56.5865 52.0645 57.8574C50.6868 58.5594 49.0658 58.9277 46.7822 59.1143C44.4905 59.3015 41.5935 59.3027 37.6748 59.3027H22.3252C18.4065 59.3027 15.5095 59.3015 13.2178 59.1143C10.9342 58.9277 9.3132 58.5594 7.93555 57.8574C5.44131 56.5865 3.41346 54.5587 2.14258 52.0645C1.44063 50.6868 1.07232 49.0658 0.885742 46.7822C0.698503 44.4905 0.697266 41.5935 0.697266 37.6748V22.3252C0.697266 18.4065 0.698503 15.5095 0.885742 13.2178C1.07232 10.9342 1.44063 9.3132 2.14258 7.93555C3.41346 5.44131 5.44131 3.41346 7.93555 2.14258C9.3132 1.44063 10.9342 1.07232 13.2178 0.885742C15.5095 0.698503 18.4065 0.697266 22.3252 0.697266Z" stroke="url(#paint0_linear_599_53)" stroke-width="1.39535"/>
<path d="M28.6055 23.0229H20.9307V20.9302H28.6055V23.0229ZM18.1396 14.3022V16.395L11.1631 20.2329V18.4888L16.7441 15.3491L11.1631 12.5581V10.814L18.1396 14.3022Z" fill="white"/>
<defs>
<linearGradient id="paint0_linear_599_53" x1="30" y1="0" x2="30" y2="60" gradientUnits="userSpaceOnUse">
<stop stop-color="#F1F2F2"/>
<stop offset="1" stop-color="#888886"/>
</linearGradient>
</defs>
</svg>
