<svg width="60" height="60" viewBox="0 0 60 60" fill="none" xmlns="http://www.w3.org/2000/svg">
<g clip-path="url(#clip0_610_107)">
<path d="M0 21.3333C0 13.866 0 10.1323 1.45325 7.28013C2.73156 4.7713 4.7713 2.73156 7.28013 1.45325C10.1323 0 13.866 0 21.3333 0H38.6667C46.134 0 49.8677 0 52.7199 1.45325C55.2287 2.73156 57.2684 4.7713 58.5468 7.28013C60 10.1323 60 13.866 60 21.3333V38.6667C60 46.134 60 49.8677 58.5468 52.7199C57.2684 55.2287 55.2287 57.2684 52.7199 58.5468C49.8677 60 46.134 60 38.6667 60H21.3333C13.866 60 10.1323 60 7.28013 58.5468C4.7713 57.2684 2.73156 55.2287 1.45325 52.7199C0 49.8677 0 46.134 0 38.6667V21.3333Z" fill="url(#paint0_linear_610_107)"/>
<path d="M25.0721 33.72L22.3969 31.0448L10.1432 43.2985C10.203 43.3344 10.2641 43.3683 10.3265 43.4001C10.9682 43.727 11.8083 43.727 13.4885 43.727H46.5551C48.2353 43.727 49.0754 43.727 49.7171 43.4001C49.7795 43.3682 49.8407 43.3343 49.9004 43.2984L37.6469 31.0448L34.9716 33.72C34.1272 34.5645 33.1207 35.1481 32.0522 35.4708C31.3912 35.6705 30.7065 35.7703 30.0218 35.7703C28.2304 35.7703 26.4389 35.0869 25.0721 33.72Z" fill="white"/>
<path d="M50.9266 42.2722C50.9625 42.2125 50.9964 42.1514 51.0282 42.089C51.3551 41.4473 51.3551 40.6072 51.3551 38.927V21.1936C51.3551 19.5134 51.3551 18.6733 51.0282 18.0316C50.9871 17.9511 50.9426 17.8727 50.8948 17.7967L38.673 30.0186L50.9266 42.2722Z" fill="white"/>
<path d="M49.952 16.8539C49.876 16.8061 49.7976 16.7616 49.7171 16.7205C49.0754 16.3936 48.2353 16.3936 46.5551 16.3936H13.4885C11.8083 16.3936 10.9682 16.3936 10.3265 16.7205C10.246 16.7615 10.1677 16.806 10.0917 16.8538L26.015 32.7772C26.8304 33.5926 27.8325 34.1076 28.8838 34.3221C29.6156 34.4714 30.3712 34.4751 31.1041 34.3332C32.1757 34.1257 33.1989 33.6071 34.0288 32.7772L49.952 16.8539Z" fill="white"/>
<path d="M9.14881 17.7967L21.3707 30.0186L9.11707 42.2723C9.08116 42.2125 9.04726 42.1514 9.01546 42.089C8.68848 41.4473 8.68848 40.6072 8.68848 38.927V21.1936C8.68848 19.5134 8.68848 18.6733 9.01546 18.0316C9.05649 17.9511 9.101 17.8727 9.14881 17.7967Z" fill="white"/>
</g>
<defs>
<linearGradient id="paint0_linear_610_107" x1="30" y1="0" x2="30" y2="60" gradientUnits="userSpaceOnUse">
<stop stop-color="#1A6BE7"/>
<stop offset="1" stop-color="#20C0F4"/>
</linearGradient>
<clipPath id="clip0_610_107">
<rect width="60" height="60" fill="white"/>
</clipPath>
</defs>
</svg>
