<svg width="60" height="60" viewBox="0 0 60 60" fill="none" xmlns="http://www.w3.org/2000/svg">
<g clip-path="url(#clip0_610_119)">
<path d="M0 21.3333C0 13.866 0 10.1323 1.45325 7.28013C2.73156 4.7713 4.7713 2.73156 7.28013 1.45325C10.1323 0 13.866 0 21.3333 0H38.6667C46.134 0 49.8677 0 52.7199 1.45325C55.2287 2.73156 57.2684 4.7713 58.5468 7.28013C60 10.1323 60 13.866 60 21.3333V38.6667C60 46.134 60 49.8677 58.5468 52.7199C57.2684 55.2287 55.2287 57.2684 52.7199 58.5468C49.8677 60 46.134 60 38.6667 60H21.3333C13.866 60 10.1323 60 7.28013 58.5468C4.7713 57.2684 2.73156 55.2287 1.45325 52.7199C0 49.8677 0 46.134 0 38.6667V21.3333Z" fill="url(#paint0_linear_610_119)"/>
<path d="M51.9141 28.7108C51.9141 38.7425 42.1028 46.8748 30 46.8748C28.1669 46.8748 26.3864 46.6883 24.6846 46.3368C24.1704 46.2306 23.6344 46.2166 23.1703 46.462C21.6504 47.2657 19.149 49.3007 15.8918 49.4449C15.7448 49.4514 15.6625 49.2825 15.753 49.1664C17.678 46.696 18.9325 44.4127 18.1055 43.9689C12.0758 40.7329 8.08594 35.1081 8.08594 28.7108C8.08594 18.6792 17.8972 10.5469 30 10.5469C42.1028 10.5469 51.9141 18.6792 51.9141 28.7108Z" fill="white"/>
</g>
<defs>
<linearGradient id="paint0_linear_610_119" x1="30" y1="0" x2="30" y2="60" gradientUnits="userSpaceOnUse">
<stop stop-color="#5AF575"/>
<stop offset="1" stop-color="#08BD2B"/>
</linearGradient>
<clipPath id="clip0_610_119">
<rect width="60" height="60" fill="white"/>
</clipPath>
</defs>
</svg>
