<svg width="45" height="45" viewBox="0 0 45 45" fill="none" xmlns="http://www.w3.org/2000/svg">
<path d="M6.96106 22.1093H4.57031V24.5001H6.96106V22.1093Z" fill="#999999"/>
<path d="M40.4298 22.1093H38.0391V24.5001H40.4298V22.1093Z" fill="#999999"/>
<path d="M38.0391 19.7187V17.3282H35.6486V14.9374H33.2578V12.5469H30.8673V10.1562H28.4766V7.76569H26.0861V5.37494H23.6953H21.3048H18.9141V7.76569H16.5236V10.1562H14.1328V12.5469H11.7423V14.9374H9.35156V17.3282H6.96106V19.7187H4.57031V22.1094H40.4298V19.7187H38.0391Z" fill="#1F1F1F"/>
<path d="M35.6489 22.7187V20.3282H33.2582V17.9374H30.8677V15.5469H28.4769V13.1562H26.0864V10.7657H23.6957H21.3052H18.9144V13.1562H16.5239V15.5469H14.1332V17.9374H11.7427V20.3282H9.35193V22.7187H6.96143V25.1094V37.2344H9.35193V39.6249H35.6489V37.2344H38.0394V25.1094V22.7187H35.6489Z" fill="#999999"/>
<path d="M26.0861 25.6719H18.9141V39.6252H26.0861V25.6719Z" fill="#1F1F1F"/>
<path d="M21.3048 31.3749H18.9141V33.7657H21.3048V31.3749Z" fill="#6B6B6B"/>
<path d="M6.96106 24.4998H9.35156V22.1093H11.7423V19.7186H14.1328V17.3281H16.5236V14.9373H21.3048H28.4766V17.3281H30.8673V19.7186H33.2578V22.1093H35.6486V24.4998H40.4298V22.1093H38.0391V19.7186H35.6486V17.3281H33.2578V14.9373H30.8673V12.5468H28.4766V10.1561H26.0861V7.76556H18.9141V10.1561H16.5236V12.5468H14.1328V14.9373H11.7423V17.3281H9.35156V19.7186H6.96106V22.1093H4.57031V24.4998H6.96106Z" fill="#222222"/>
<path d="M21.9611 13.3749H19.5703V15.7657H21.9611V13.3749Z" fill="#BABABA"/>
<path d="M23.9611 13.3749H21.5703V15.7657H23.9611V13.3749Z" fill="#BABABA"/>
<path d="M25.9611 13.3749H23.5703V15.7657H25.9611V13.3749Z" fill="#BABABA"/>
</svg>
